<?xml version="1.0" encoding="utf-8"?>
<!-- Generator: Adobe Illustrator 16.0.0, SVG Export Plug-In . SVG Version: 6.00 Build 0)  -->
<svg version="1.2" baseProfile="tiny" id="Layer_1" xmlns="http://www.w3.org/2000/svg" xmlns:xlink="http://www.w3.org/1999/xlink"
	 x="0px" y="0px" width="2048px" height="2048px" viewBox="0 0 2048 2048" overflow="inherit" xml:space="preserve">
<g>
	<path fill="none" stroke="#ED1C24" stroke-width="50" stroke-miterlimit="10" d="M1024,765.898l342.086,257.629l514.433-384.871
		C1733.438,312.244,1405.257,85.017,1024,85.017c-381.257,0-709.438,227.227-856.519,553.64l514.433,384.871L1024,765.898z"/>
	<polygon fill="none" stroke="#ED1C24" stroke-width="50" stroke-miterlimit="10" points="681.914,1023.527 1024,1279.458 
		1366.086,1023.527 1024,765.898 	"/>
	<path fill="none" stroke="#ED1C24" stroke-width="50" stroke-miterlimit="10" d="M1879.98,1410.548
		c53.32-117.887,83.003-248.751,83.003-386.548c0-137.329-29.486-267.769-82.465-385.343l-514.433,384.871L1879.98,1410.548z"/>
	<path fill="none" stroke="#ED1C24" stroke-width="50" stroke-miterlimit="10" d="M1366.086,1023.527L1024,1279.458
		l-342.086-255.931L168.02,1410.548c147.344,325.769,475.191,552.436,855.98,552.436s708.637-226.667,855.98-552.436
		L1366.086,1023.527z"/>
	<path fill="none" stroke="#ED1C24" stroke-width="50" stroke-miterlimit="10" d="M167.481,638.657
		C114.503,756.231,85.017,886.671,85.017,1024c0,137.797,29.683,268.661,83.003,386.548l513.895-387.021L167.481,638.657z"/>
</g>
</svg>
